<svg enable-background="new 0 0 52 52" height="52" viewBox="0 0 52 52" width="52" xmlns="http://www.w3.org/2000/svg"><g fill="#fff"><path d="m48.5 31h-3c-.8 0-1.5.7-1.5 1.5v10c0 .8-.7 1.5-1.5 1.5h-33c-.8 0-1.5-.7-1.5-1.5v-10c0-.8-.7-1.5-1.5-1.5h-3c-.8 0-1.5.7-1.5 1.5v13.5c0 2.2 1.8 4 4 4h40c2.2 0 4-1.8 4-4v-13.5c0-.8-.7-1.5-1.5-1.5z"/><path d="m25 37.6c.6.6 1.5.6 2.1 0l13.5-13.5c.6-.6.6-1.5 0-2.1l-2.1-2.1c-.6-.6-1.5-.6-2.1 0l-5.6 5.6c-.6.6-1.7.2-1.7-.7v-21.3c-.1-.8-.9-1.5-1.6-1.5h-3c-.8 0-1.5.7-1.5 1.5v21.2c0 .9-1.1 1.3-1.7.7l-5.6-5.6c-.6-.6-1.5-.6-2.1 0l-2.1 2.2c-.6.6-.6 1.5 0 2.1z"/></g></svg>